<?xml version="1.0" encoding="UTF-8"?>
<svg id="Capa_1" data-name="Capa 1" xmlns="http://www.w3.org/2000/svg" viewBox="0 0 341.75 325.48">
  <defs>
    <style>
      .cls-1 {
        fill: #fff;
        fill-rule: evenodd;
        stroke-width: 0px;
      }
    </style>
  </defs>
  <path class="cls-1" d="m98.19,28.15c1.81-.36,15.46-4.99,15.46-4.99l-5.98,7.14c45.57,4.79,50.13,31.06,50.13,31.06-20.26-8.4-37.4-11.78-51.86-11.78-59.65,0-73.7,57.57-73.71,57.89,12.24-3.59,32.21-10.18,33.71-10.18.06,0,.09.01.09.03l6.91-12.6c2.66,5.76,2.63,11.7,2.63,11.7,29.11-13.66,45.65-16.59,54.47-16.59,6.6,0,8.88,1.64,8.88,1.64-79.9,26.42-32.59,101.97-32.59,101.97-.51-19.31,25.72-54.38,25.72-54.38l-2.4-12.29,6.5,2.31c3.47-13.59,12.13-27.37,23.12-36.19,3.38-2.71,7.24-4.97,10.82-7.41,0,0,8.72,4.72,12.49,7.59,3.77,2.86,17.68,15.24,23.05,36.09l6.49-2.32-2.38,12.29s26.29,35.03,25.81,54.34c0,0,47.17-75.63-32.77-101.91,0,0,2.3-1.65,8.95-1.65,8.84,0,25.38,2.91,54.43,16.49,0,0-.04-5.94,2.61-11.7l6.93,12.59s.03-.03.09-.03c1.51,0,21.48,6.55,33.73,10.12,0-.32-14.14-57.76-73.65-57.76-14.49,0-31.67,3.41-52,11.87,0,0,4.51-26.28,50.07-31.15l-5.99-7.13s13.66,4.6,15.47,4.96c12.96-4.7,24.76-5.99,33.82-5.99,11.03,0,17.98,1.91,17.98,1.91,0,0-28.22-24.06-61.1-24.06-13.61,0-28.01,4.12-41.54,15.77,0,0-10.81,7.96-19.9,33.16l-1.87,4.21-1.84-4.35c-9.13-25.18-19.96-33.12-19.96-33.12C135.5,4.1,121.13,0,107.56,0c-32.93,0-61.18,24.17-61.18,24.17,0,0,7.02-1.94,18.15-1.94,9.04,0,20.78,1.28,33.67,5.93Z"/>
  <path class="cls-1" d="m302.18,111.96l-108.08,162.87c-26.72-49-29.8-122.27-14.26-183.3-1.26-1.16-2.11-1.82-2.25-1.93-1.5-1.14-4.43-2.93-7.17-4.51-2.17,1.41-4.22,2.76-6.02,4.2-1.76,1.41-3.43,3.02-5.05,4.72-23.72,88.87-16.86,157.2-.76,197.31L39.62,112.03c-1.95.59-3.84,1.17-5.56,1.67l-3.11.91,139.92,210.86,139.98-210.95-3.16-.92c-1.7-.5-3.58-1.06-5.52-1.65Z"/>
  <path class="cls-1" d="m40.05,76.63c2.05-2.9,4.37-5.81,6.98-8.65H0l25.84,38.94c.28-1.24,1.31-5.13,3.45-10.46l-13.16-19.83h23.93Z"/>
  <path class="cls-1" d="m294.72,67.97c2.61,2.84,4.93,5.75,6.98,8.65h23.92l-13.15,19.81c2.17,5.39,3.19,9.31,3.45,10.45l25.82-38.91h-47.03Z"/>
</svg>