<?xml version="1.0" encoding="UTF-8"?>
<svg id="Capa_1" data-name="Capa 1" xmlns="http://www.w3.org/2000/svg" viewBox="0 0 560.72 92.83">
  <defs>
    <style>
      .cls-1, .cls-2 {
        fill: #fff;
        stroke-width: 0px;
      }

      .cls-2 {
        fill-rule: evenodd;
      }
    </style>
  </defs>
  <g>
    <path class="cls-2" d="m27.7,7.94c.51-.1,4.36-1.41,4.36-1.41l-1.69,2.02c12.85,1.35,14.14,8.76,14.14,8.76-5.71-2.37-10.55-3.32-14.63-3.32-16.83,0-20.79,16.24-20.79,16.33,3.45-1.01,9.08-2.87,9.51-2.87.02,0,.03,0,.03,0l1.95-3.55c.75,1.62.74,3.3.74,3.3,8.21-3.85,12.88-4.68,15.36-4.68,1.86,0,2.51.46,2.51.46-22.54,7.45-9.19,28.76-9.19,28.76-.14-5.45,7.25-15.34,7.25-15.34l-.68-3.47,1.83.65c.98-3.83,3.42-7.72,6.52-10.21.95-.76,2.04-1.4,3.05-2.09,0,0,2.46,1.33,3.52,2.14,1.06.81,4.99,4.3,6.5,10.18l1.83-.65-.67,3.47s7.41,9.88,7.28,15.33c0,0,13.31-21.33-9.24-28.75,0,0,.65-.47,2.52-.47,2.49,0,7.16.82,15.35,4.65,0,0-.01-1.68.74-3.3l1.95,3.55s0,0,.03,0c.43,0,6.06,1.85,9.51,2.86,0-.09-3.99-16.29-20.77-16.29-4.09,0-8.93.96-14.67,3.35,0,0,1.27-7.41,14.12-8.79l-1.69-2.01s3.85,1.3,4.36,1.4c3.66-1.32,6.99-1.69,9.54-1.69,3.11,0,5.07.54,5.07.54C83.27,6.8,75.31,0,66.04,0c-3.84,0-7.9,1.16-11.72,4.45,0,0-3.05,2.24-5.61,9.35l-.53,1.19-.52-1.23c-2.58-7.1-5.63-9.34-5.63-9.34C38.22,1.16,34.17,0,30.34,0,21.05,0,13.08,6.82,13.08,6.82c0,0,1.98-.55,5.12-.55,2.55,0,5.86.36,9.5,1.67Z"/>
    <path class="cls-2" d="m85.24,31.58l-30.49,45.94c-7.54-13.82-8.41-34.49-4.02-51.7-.36-.33-.6-.51-.63-.54-.42-.32-1.25-.83-2.02-1.27-.61.4-1.19.78-1.7,1.19-.5.4-.97.85-1.42,1.33-6.69,25.07-4.75,44.34-.21,55.66L11.18,31.6c-.55.17-1.08.33-1.57.47l-.88.26,39.47,59.48,39.49-59.5-.89-.26c-.48-.14-1.01-.3-1.56-.47Z"/>
    <path class="cls-2" d="m11.3,21.61c.58-.82,1.23-1.64,1.97-2.44H0l7.29,10.98c.08-.35.37-1.45.97-2.95l-3.71-5.59h6.75Z"/>
    <path class="cls-2" d="m83.13,19.17c.74.8,1.39,1.62,1.97,2.44h6.75l-3.71,5.59c.61,1.52.9,2.63.97,2.95l7.28-10.98h-13.27Z"/>
  </g>
  <g>
    <path class="cls-1" d="m118.01,51.45c2.39,1.34,4.26,3.22,5.62,5.65,1.36,2.43,2.04,5.25,2.04,8.47s-.68,6.05-2.04,8.48c-1.36,2.43-3.23,4.31-5.62,5.65-2.39,1.34-5.04,2.01-7.95,2.01-4,0-7.15-1.26-9.44-3.79v14.62h-9.09v-42.64h8.68v3.61c2.25-2.72,5.53-4.08,9.84-4.08,2.91,0,5.56.67,7.95,2.01Zm-3.79,20.45c1.5-1.57,2.24-3.68,2.24-6.32s-.75-4.75-2.24-6.32c-1.5-1.57-3.41-2.36-5.74-2.36s-4.24.79-5.74,2.36c-1.5,1.57-2.24,3.68-2.24,6.32s.75,4.75,2.24,6.32c1.5,1.57,3.41,2.36,5.74,2.36s4.24-.79,5.74-2.36Z"/>
    <path class="cls-1" d="m154.45,52.9c2.6,2.31,3.9,5.8,3.9,10.46v17.88h-8.5v-3.9c-1.71,2.91-4.89,4.37-9.55,4.37-2.41,0-4.5-.41-6.26-1.22-1.77-.82-3.12-1.94-4.05-3.38-.93-1.44-1.4-3.07-1.4-4.89,0-2.91,1.1-5.2,3.29-6.87,2.19-1.67,5.58-2.5,10.16-2.5h7.22c0-1.98-.6-3.5-1.81-4.57-1.2-1.07-3.01-1.6-5.42-1.6-1.67,0-3.31.26-4.92.79-1.61.52-2.98,1.23-4.11,2.13l-3.26-6.35c1.71-1.2,3.76-2.13,6.14-2.79,2.39-.66,4.84-.99,7.37-.99,4.85,0,8.58,1.16,11.18,3.46Zm-7.75,21.61c1.2-.72,2.06-1.78,2.56-3.17v-3.2h-6.23c-3.73,0-5.59,1.22-5.59,3.67,0,1.16.46,2.09,1.37,2.77.91.68,2.16,1.02,3.76,1.02s2.93-.36,4.14-1.08Z"/>
    <path class="cls-1" d="m178.47,50.6c1.84-.78,3.97-1.16,6.38-1.16v8.39c-1.01-.08-1.69-.12-2.04-.12-2.6,0-4.64.73-6.12,2.18-1.48,1.46-2.21,3.64-2.21,6.55v14.79h-9.09v-31.34h8.68v4.14c1.09-1.51,2.55-2.66,4.4-3.44Z"/>
    <path class="cls-1" d="m214.73,52.9c2.6,2.31,3.9,5.8,3.9,10.46v17.88h-8.5v-3.9c-1.71,2.91-4.89,4.37-9.55,4.37-2.41,0-4.5-.41-6.26-1.22-1.77-.82-3.12-1.94-4.05-3.38-.93-1.44-1.4-3.07-1.4-4.89,0-2.91,1.1-5.2,3.29-6.87,2.19-1.67,5.58-2.5,10.16-2.5h7.22c0-1.98-.6-3.5-1.81-4.57-1.2-1.07-3.01-1.6-5.42-1.6-1.67,0-3.31.26-4.92.79-1.61.52-2.98,1.23-4.11,2.13l-3.26-6.35c1.71-1.2,3.76-2.13,6.14-2.79,2.39-.66,4.84-.99,7.37-.99,4.85,0,8.58,1.16,11.18,3.46Zm-7.75,21.61c1.2-.72,2.06-1.78,2.56-3.17v-3.2h-6.23c-3.73,0-5.59,1.22-5.59,3.67,0,1.16.46,2.09,1.37,2.77.91.68,2.16,1.02,3.76,1.02s2.93-.36,4.14-1.08Z"/>
    <path class="cls-1" d="m257.37,38.02v43.22h-8.68v-3.61c-2.25,2.72-5.51,4.08-9.79,4.08-2.95,0-5.62-.66-8.01-1.98-2.39-1.32-4.26-3.2-5.62-5.65-1.36-2.45-2.04-5.28-2.04-8.5s.68-6.06,2.04-8.5c1.36-2.45,3.23-4.33,5.62-5.65,2.39-1.32,5.06-1.98,8.01-1.98,4,0,7.12,1.26,9.38,3.79v-15.2h9.09Zm-11.18,33.87c1.51-1.57,2.27-3.68,2.27-6.32s-.76-4.75-2.27-6.32c-1.51-1.57-3.42-2.36-5.71-2.36s-4.25.79-5.77,2.36c-1.51,1.57-2.27,3.68-2.27,6.32s.76,4.75,2.27,6.32c1.51,1.57,3.44,2.36,5.77,2.36s4.19-.79,5.71-2.36Z"/>
    <path class="cls-1" d="m265.17,49.9h9.09v31.34h-9.09v-31.34Z"/>
    <path class="cls-1" d="m286.43,80.74c-2.49-.64-4.47-1.45-5.94-2.42l3.03-6.52c1.4.89,3.09,1.62,5.07,2.18,1.98.56,3.92.84,5.82.84,3.84,0,5.77-.95,5.77-2.85,0-.89-.52-1.53-1.57-1.92-1.05-.39-2.66-.72-4.83-.99-2.56-.39-4.68-.83-6.35-1.34-1.67-.5-3.12-1.4-4.34-2.68-1.22-1.28-1.83-3.11-1.83-5.48,0-1.98.57-3.74,1.72-5.27,1.14-1.53,2.81-2.73,5.01-3.58,2.19-.85,4.79-1.28,7.78-1.28,2.21,0,4.42.24,6.61.73,2.19.49,4.01,1.16,5.45,2.01l-3.03,6.47c-2.76-1.55-5.77-2.33-9.03-2.33-1.94,0-3.4.27-4.37.82-.97.54-1.46,1.24-1.46,2.1,0,.97.52,1.65,1.57,2.04,1.05.39,2.72.76,5.01,1.11,2.56.43,4.66.88,6.29,1.37,1.63.49,3.05,1.37,4.25,2.65,1.2,1.28,1.81,3.07,1.81,5.36,0,1.94-.58,3.67-1.75,5.18-1.16,1.51-2.86,2.69-5.1,3.52-2.23.83-4.88,1.25-7.95,1.25-2.6,0-5.15-.32-7.63-.96Z"/>
    <path class="cls-1" d="m345.79,68.13h-23.71c.43,1.94,1.44,3.48,3.03,4.6,1.59,1.13,3.57,1.69,5.94,1.69,1.63,0,3.08-.24,4.34-.73,1.26-.49,2.44-1.25,3.52-2.3l4.83,5.24c-2.95,3.38-7.26,5.07-12.93,5.07-3.53,0-6.66-.69-9.38-2.07-2.72-1.38-4.82-3.29-6.29-5.74s-2.21-5.22-2.21-8.33.73-5.83,2.18-8.3c1.46-2.47,3.46-4.39,6-5.77,2.54-1.38,5.39-2.07,8.53-2.07s5.84.66,8.33,1.98c2.49,1.32,4.44,3.21,5.85,5.68,1.42,2.47,2.13,5.33,2.13,8.59,0,.12-.06.93-.17,2.45Zm-21.26-10.08c-1.4,1.16-2.25,2.76-2.56,4.78h15.44c-.31-1.98-1.16-3.56-2.56-4.75-1.4-1.18-3.11-1.78-5.12-1.78s-3.79.58-5.18,1.75Z"/>
    <path class="cls-1" d="m382.77,50.6v26.91c0,5.2-1.27,9.06-3.81,11.56-2.54,2.5-6.38,3.76-11.5,3.76-2.84,0-5.52-.42-8.07-1.25-2.54-.83-4.61-1.99-6.2-3.47l2.1-3.15c1.47,1.32,3.27,2.35,5.39,3.09,2.12.74,4.34,1.11,6.67,1.11,3.88,0,6.74-.9,8.56-2.71,1.83-1.81,2.74-4.61,2.74-8.42v-3.9c-1.28,1.94-2.96,3.42-5.04,4.43-2.08,1.01-4.38,1.51-6.9,1.51-2.87,0-5.49-.63-7.83-1.89-2.35-1.26-4.19-3.03-5.53-5.3-1.34-2.27-2.01-4.84-2.01-7.72s.67-5.44,2.01-7.69c1.34-2.25,3.17-4,5.5-5.24,2.33-1.24,4.95-1.86,7.86-1.86,2.6,0,4.95.52,7.05,1.57,2.1,1.05,3.79,2.56,5.07,4.54v-5.88h3.96Zm-9.67,24.38c1.79-.95,3.17-2.28,4.16-3.99.99-1.71,1.49-3.65,1.49-5.82s-.5-4.11-1.49-5.8c-.99-1.69-2.37-3.01-4.14-3.96-1.77-.95-3.78-1.43-6.03-1.43s-4.2.47-5.97,1.4c-1.77.93-3.15,2.25-4.14,3.96-.99,1.71-1.49,3.65-1.49,5.83s.5,4.12,1.49,5.82c.99,1.71,2.37,3.04,4.14,3.99,1.77.95,3.76,1.43,5.97,1.43s4.21-.47,6-1.43Z"/>
    <path class="cls-1" d="m411.95,53.37c2.13,2,3.2,4.96,3.2,8.88v18.99h-3.96v-4.78c-.93,1.59-2.3,2.84-4.11,3.73-1.81.89-3.95,1.34-6.44,1.34-3.42,0-6.14-.82-8.15-2.45-2.02-1.63-3.03-3.79-3.03-6.47s.94-4.7,2.82-6.29c1.88-1.59,4.88-2.39,9-2.39h9.73v-1.86c0-2.64-.74-4.65-2.21-6.03-1.48-1.38-3.63-2.07-6.47-2.07-1.94,0-3.81.32-5.59.96-1.79.64-3.32,1.52-4.6,2.65l-1.86-3.09c1.55-1.32,3.42-2.34,5.59-3.06,2.17-.72,4.46-1.08,6.87-1.08,4,0,7.07,1,9.2,3Zm-4.66,23.3c1.67-1.07,2.91-2.61,3.73-4.63v-5.01h-9.61c-5.24,0-7.86,1.83-7.86,5.48,0,1.79.68,3.19,2.04,4.22,1.36,1.03,3.26,1.54,5.71,1.54s4.33-.53,6-1.6Z"/>
    <path class="cls-1" d="m469.59,53.69c2.19,2.21,3.29,5.47,3.29,9.79v17.77h-4.14v-17.36c0-3.18-.77-5.61-2.3-7.28-1.53-1.67-3.7-2.5-6.49-2.5-3.18,0-5.69.98-7.51,2.94-1.83,1.96-2.74,4.67-2.74,8.13v16.08h-4.14v-17.36c0-3.18-.77-5.61-2.3-7.28-1.53-1.67-3.72-2.5-6.55-2.5-3.14,0-5.64.98-7.48,2.94-1.84,1.96-2.77,4.67-2.77,8.13v16.08h-4.14v-30.64h3.96v5.59c1.09-1.86,2.6-3.3,4.54-4.31,1.94-1.01,4.17-1.51,6.7-1.51s4.79.54,6.67,1.63c1.88,1.09,3.29,2.7,4.22,4.83,1.13-2.02,2.75-3.6,4.86-4.75,2.12-1.14,4.53-1.72,7.25-1.72,3.84,0,6.86,1.11,9.06,3.32Z"/>
    <path class="cls-1" d="m481.73,43.03c-.58-.58-.87-1.28-.87-2.1s.29-1.46.87-2.04,1.3-.87,2.16-.87,1.57.28,2.16.84c.58.56.87,1.23.87,2.01,0,.85-.29,1.57-.87,2.16-.58.58-1.3.87-2.16.87s-1.57-.29-2.16-.87Zm.06,7.57h4.14v30.64h-4.14v-30.64Z"/>
    <path class="cls-1" d="m519.91,53.72c2.27,2.23,3.41,5.49,3.41,9.76v17.77h-4.13v-17.36c0-3.18-.8-5.61-2.39-7.28-1.59-1.67-3.86-2.5-6.81-2.5-3.3,0-5.91.98-7.83,2.94-1.92,1.96-2.88,4.67-2.88,8.13v16.08h-4.14v-30.64h3.96v5.65c1.13-1.86,2.69-3.31,4.69-4.34,2-1.03,4.32-1.54,6.96-1.54,3.84,0,6.9,1.12,9.17,3.35Z"/>
    <path class="cls-1" d="m560.72,50.6v26.91c0,5.2-1.27,9.06-3.81,11.56-2.54,2.5-6.38,3.76-11.5,3.76-2.84,0-5.52-.42-8.07-1.25-2.54-.83-4.61-1.99-6.2-3.47l2.1-3.15c1.47,1.32,3.27,2.35,5.39,3.09,2.12.74,4.34,1.11,6.67,1.11,3.88,0,6.74-.9,8.56-2.71,1.83-1.81,2.74-4.61,2.74-8.42v-3.9c-1.28,1.94-2.96,3.42-5.04,4.43-2.08,1.01-4.38,1.51-6.9,1.51-2.87,0-5.49-.63-7.83-1.89-2.35-1.26-4.19-3.03-5.53-5.3-1.34-2.27-2.01-4.84-2.01-7.72s.67-5.44,2.01-7.69c1.34-2.25,3.17-4,5.5-5.24,2.33-1.24,4.95-1.86,7.86-1.86,2.6,0,4.95.52,7.05,1.57,2.1,1.05,3.79,2.56,5.07,4.54v-5.88h3.96Zm-9.67,24.38c1.79-.95,3.17-2.28,4.16-3.99.99-1.71,1.49-3.65,1.49-5.82s-.5-4.11-1.49-5.8c-.99-1.69-2.37-3.01-4.14-3.96-1.77-.95-3.78-1.43-6.03-1.43s-4.2.47-5.97,1.4c-1.77.93-3.15,2.25-4.14,3.96-.99,1.71-1.49,3.65-1.49,5.83s.5,4.12,1.49,5.82c.99,1.71,2.37,3.04,4.14,3.99,1.77.95,3.76,1.43,5.97,1.43s4.21-.47,6-1.43Z"/>
  </g>
  <path class="cls-1" d="m265.64,44.08c-1.05-.97-1.57-2.17-1.57-3.61s.52-2.64,1.57-3.61c1.05-.97,2.41-1.46,4.08-1.46s3.03.47,4.08,1.4c1.05.93,1.57,2.1,1.57,3.49,0,1.51-.52,2.77-1.57,3.76-1.05.99-2.41,1.49-4.08,1.49s-3.03-.49-4.08-1.46Z"/>
</svg>